<svg class="animated" id="freepik_stories-customer-survey" xmlns="http://www.w3.org/2000/svg" viewBox="0 0 500 500" version="1.1" xmlns:xlink="http://www.w3.org/1999/xlink" xmlns:svgjs="http://svgjs.com/svgjs"><style>svg#freepik_stories-customer-survey:not(.animated) .animable {opacity: 0;}svg#freepik_stories-customer-survey.animated #freepik--character-1--inject-71 {animation: 1.5s Infinite  linear floating;animation-delay: 0s;}            @keyframes floating {                0% {                    opacity: 1;                    transform: translateY(0px);                }                50% {                    transform: translateY(-10px);                }                100% {                    opacity: 1;                    transform: translateY(0px);                }            }        .animator-hidden { display: none; }</style><g id="freepik--background-simple--inject-71" style="transform-origin: 251.647px 223.033px 0px;" class="animable animator-active animator-hidden"><path d="M377,196.62a14.59,14.59,0,0,1-5.51-10.77c-1.46-21.69,11.09-60.9-13.48-70.93-19.13-7.82-36.74,13.91-55.75,7.1C282.2,114.83,274.16,97,246,93.36S213.7,120.93,196.11,130s-49.18-14.3-62.06-4.39-1.34,71-12.59,85.37-31.34,2.7-37.77,23.37,4,53.93,4,67.41-12,12.58-12.85,27S84.49,353,84.49,353H416.41s11.25-19.77,12.06-43.14-13.66-27-24.11-36.85c-9.67-9.15,3.19-32.29,5.16-43.11,1-5.17.87-10.87-1.63-15.35C401.53,203.16,386.22,203.51,377,196.62Z" style="fill: rgb(146, 227, 169); transform-origin: 251.647px 223.033px 0px;" id="elq2or1o5vt8l" class="animable"></path><g id="elp91jgwe3pr"><path d="M377,196.62a14.59,14.59,0,0,1-5.51-10.77c-1.46-21.69,11.09-60.9-13.48-70.93-19.13-7.82-36.74,13.91-55.75,7.1C282.2,114.83,274.16,97,246,93.36S213.7,120.93,196.11,130s-49.18-14.3-62.06-4.39-1.34,71-12.59,85.37-31.34,2.7-37.77,23.37,4,53.93,4,67.41-12,12.58-12.85,27S84.49,353,84.49,353H416.41s11.25-19.77,12.06-43.14-13.66-27-24.11-36.85c-9.67-9.15,3.19-32.29,5.16-43.11,1-5.17.87-10.87-1.63-15.35C401.53,203.16,386.22,203.51,377,196.62Z" style="fill: rgb(255, 255, 255); opacity: 0.7; transform-origin: 251.647px 223.033px 0px;" class="animable"></path></g></g><g id="freepik--supermarket-shelf--inject-71" style="transform-origin: 252.34px 212.255px 0px;" class="animable animator-hidden"><path d="M134.18,181.28a10.76,10.76,0,1,0-19.48,0Z" style="fill: none; stroke: rgb(38, 50, 56); stroke-linecap: round; stroke-linejoin: round; transform-origin: 124.44px 173.614px 0px;" id="elnqmvfht7rb" class="animable"></path><path d="M159.85,181.28a10.77,10.77,0,1,0-19.48,0Z" style="fill: none; stroke: rgb(38, 50, 56); stroke-linecap: round; stroke-linejoin: round; transform-origin: 150.11px 173.597px 0px;" id="elfhpbezw37ap" class="animable"></path><path d="M185.51,181.28a10.76,10.76,0,1,0-19.48,0Z" style="fill: none; stroke: rgb(38, 50, 56); stroke-linecap: round; stroke-linejoin: round; transform-origin: 175.77px 173.614px 0px;" id="elvturlqrvfxj" class="animable"></path><path d="M211.17,181.28a10.76,10.76,0,1,0-19.48,0Z" style="fill: none; stroke: rgb(38, 50, 56); stroke-linecap: round; stroke-linejoin: round; transform-origin: 201.43px 173.614px 0px;" id="elf2zcm2uzn04" class="animable"></path><path d="M236.84,181.28a10.77,10.77,0,1,0-19.49,0Z" style="fill: none; stroke: rgb(38, 50, 56); stroke-linecap: round; stroke-linejoin: round; transform-origin: 227.095px 173.602px 0px;" id="elxtn5s8ipis" class="animable"></path><path d="M262.5,181.28a10.76,10.76,0,1,0-19.48,0Z" style="fill: none; stroke: rgb(38, 50, 56); stroke-linecap: round; stroke-linejoin: round; transform-origin: 252.76px 173.614px 0px;" id="el5qk1ss2h4s6" class="animable"></path><path d="M288.16,181.28a10.76,10.76,0,1,0-19.48,0Z" style="fill: none; stroke: rgb(38, 50, 56); stroke-linecap: round; stroke-linejoin: round; transform-origin: 278.42px 173.614px 0px;" id="elt12q6m75ex8" class="animable"></path><path d="M313.82,181.28a10.76,10.76,0,1,0-19.48,0Z" style="fill: none; stroke: rgb(38, 50, 56); stroke-linecap: round; stroke-linejoin: round; transform-origin: 304.08px 173.614px 0px;" id="el25ziaar6552" class="animable"></path><path d="M339.49,181.28A10.76,10.76,0,1,0,319,176.73a10.69,10.69,0,0,0,1,4.55Z" style="fill: none; stroke: rgb(38, 50, 56); stroke-linecap: round; stroke-linejoin: round; transform-origin: 329.76px 173.603px 0px;" id="elnsfs65nae2j" class="animable"></path><path d="M365.15,181.28a10.76,10.76,0,1,0-19.48,0Z" style="fill: none; stroke: rgb(38, 50, 56); stroke-linecap: round; stroke-linejoin: round; transform-origin: 355.41px 173.614px 0px;" id="el2mwucvk0tr1" class="animable"></path><path d="M390.81,181.28a10.76,10.76,0,1,0-19.48,0Z" style="fill: none; stroke: rgb(38, 50, 56); stroke-linecap: round; stroke-linejoin: round; transform-origin: 381.07px 173.614px 0px;" id="elyr7jei14kjo" class="animable"></path><line x1="107.6" y1="181.61" x2="394.9" y2="181.61" style="fill: none; stroke: rgb(38, 50, 56); stroke-linecap: round; stroke-linejoin: round; transform-origin: 251.25px 181.61px 0px;" id="el0598coo979yl" class="animable"></line><line x1="107.6" y1="200.86" x2="394.9" y2="200.86" style="fill: none; stroke: rgb(38, 50, 56); stroke-linecap: round; stroke-linejoin: round; transform-origin: 251.25px 200.86px 0px;" id="elo0pr8c3vmxn" class="animable"></line><line x1="107.6" y1="257.69" x2="394.9" y2="257.69" style="fill: none; stroke: rgb(38, 50, 56); stroke-linecap: round; stroke-linejoin: round; transform-origin: 251.25px 257.69px 0px;" id="eltikyfknzy7l" class="animable"></line><line x1="107.6" y1="276.93" x2="394.9" y2="276.93" style="fill: none; stroke: rgb(38, 50, 56); stroke-linecap: round; stroke-linejoin: round; transform-origin: 251.25px 276.93px 0px;" id="elx8p8z03t36" class="animable"></line><rect x="113.86" y="223" width="20.71" height="34.32" style="fill: none; stroke: rgb(38, 50, 56); stroke-linecap: round; stroke-linejoin: round; transform-origin: 124.215px 240.16px 0px;" id="elz4t0wbh55nk" class="animable"></rect><rect x="139.3" y="223" width="20.71" height="34.32" style="fill: none; stroke: rgb(38, 50, 56); stroke-linecap: round; stroke-linejoin: round; transform-origin: 149.655px 240.16px 0px;" id="elisbgeelgdq" class="animable"></rect><rect x="164.75" y="223" width="20.71" height="34.32" style="fill: none; stroke: rgb(38, 50, 56); stroke-linecap: round; stroke-linejoin: round; transform-origin: 175.105px 240.16px 0px;" id="el2v6no9j6nb" class="animable"></rect><rect x="190.19" y="223" width="20.71" height="34.32" style="fill: none; stroke: rgb(38, 50, 56); stroke-linecap: round; stroke-linejoin: round; transform-origin: 200.545px 240.16px 0px;" id="elipcu70ulv1j" class="animable"></rect><rect x="215.64" y="223" width="20.71" height="34.32" style="fill: none; stroke: rgb(38, 50, 56); stroke-linecap: round; stroke-linejoin: round; transform-origin: 225.995px 240.16px 0px;" id="el7njy1vjiheg" class="animable"></rect><rect x="241.08" y="223" width="20.71" height="34.32" style="fill: none; stroke: rgb(38, 50, 56); stroke-linecap: round; stroke-linejoin: round; transform-origin: 251.435px 240.16px 0px;" id="elh2jvhofl6io" class="animable"></rect><rect x="266.53" y="223" width="20.71" height="34.32" style="fill: none; stroke: rgb(38, 50, 56); stroke-linecap: round; stroke-linejoin: round; transform-origin: 276.885px 240.16px 0px;" id="elxhys8suj0w" class="animable"></rect><rect x="291.97" y="223" width="20.71" height="34.32" style="fill: none; stroke: rgb(38, 50, 56); stroke-linecap: round; stroke-linejoin: round; transform-origin: 302.325px 240.16px 0px;" id="eljxqtffkzwsc" class="animable"></rect><rect x="317.42" y="223" width="20.71" height="34.32" style="fill: none; stroke: rgb(38, 50, 56); stroke-linecap: round; stroke-linejoin: round; transform-origin: 327.775px 240.16px 0px;" id="elvhh9z5leqz" class="animable"></rect><rect x="342.86" y="223" width="20.71" height="34.32" style="fill: none; stroke: rgb(38, 50, 56); stroke-linecap: round; stroke-linejoin: round; transform-origin: 353.215px 240.16px 0px;" id="elnxaxhr7zpgj" class="animable"></rect><rect x="368.3" y="223" width="20.71" height="34.32" style="fill: none; stroke: rgb(38, 50, 56); stroke-linecap: round; stroke-linejoin: round; transform-origin: 378.655px 240.16px 0px;" id="elctz7tnl93e7" class="animable"></rect><polygon points="372.52 300.16 372.52 282.47 366.31 282.47 366.31 300.16 363.2 300.16 363.2 333.65 375.63 333.65 375.63 300.16 372.52 300.16" style="fill: none; stroke: rgb(38, 50, 56); stroke-linecap: round; stroke-linejoin: round; transform-origin: 369.415px 308.06px 0px;" id="el7gorzvjagtw" class="animable"></polygon><polygon points="351.74 300.16 351.74 282.47 345.52 282.47 345.52 300.16 342.42 300.16 342.42 333.65 354.84 333.65 354.84 300.16 351.74 300.16" style="fill: none; stroke: rgb(38, 50, 56); stroke-linecap: round; stroke-linejoin: round; transform-origin: 348.63px 308.06px 0px;" id="eljdppggm5eek" class="animable"></polygon><polygon points="330.95 300.16 330.95 282.47 324.74 282.47 324.74 300.16 321.63 300.16 321.63 333.65 334.06 333.65 334.06 300.16 330.95 300.16" style="fill: none; stroke: rgb(38, 50, 56); stroke-linecap: round; stroke-linejoin: round; transform-origin: 327.845px 308.06px 0px;" id="el3j9exj343gh" class="animable"></polygon><polygon points="310.17 300.16 310.17 282.47 303.95 282.47 303.95 300.16 300.85 300.16 300.85 333.65 313.27 333.65 313.27 300.16 310.17 300.16" style="fill: none; stroke: rgb(38, 50, 56); stroke-linecap: round; stroke-linejoin: round; transform-origin: 307.06px 308.06px 0px;" id="elva74xds7mq8" class="animable"></polygon><polygon points="289.38 300.16 289.38 282.47 283.17 282.47 283.17 300.16 280.06 300.16 280.06 333.65 292.49 333.65 292.49 300.16 289.38 300.16" style="fill: none; stroke: rgb(38, 50, 56); stroke-linecap: round; stroke-linejoin: round; transform-origin: 286.275px 308.06px 0px;" id="el83fazlq434v" class="animable"></polygon><polygon points="268.6 300.16 268.6 282.47 262.38 282.47 262.38 300.16 259.28 300.16 259.28 333.65 271.7 333.65 271.7 300.16 268.6 300.16" style="fill: none; stroke: rgb(38, 50, 56); stroke-linecap: round; stroke-linejoin: round; transform-origin: 265.49px 308.06px 0px;" id="el70vfo9sder5" class="animable"></polygon><polygon points="247.81 300.16 247.81 282.47 241.6 282.47 241.6 300.16 238.49 300.16 238.49 333.65 250.92 333.65 250.92 300.16 247.81 300.16" style="fill: none; stroke: rgb(38, 50, 56); stroke-linecap: round; stroke-linejoin: round; transform-origin: 244.705px 308.06px 0px;" id="elzjnsm6t4ylj" class="animable"></polygon><polygon points="227.03 300.16 227.03 282.47 220.81 282.47 220.81 300.16 217.71 300.16 217.71 333.65 230.13 333.65 230.13 300.16 227.03 300.16" style="fill: none; stroke: rgb(38, 50, 56); stroke-linecap: round; stroke-linejoin: round; transform-origin: 223.92px 308.06px 0px;" id="elk1lz3v5b7f" class="animable"></polygon><polygon points="206.24 300.16 206.24 282.47 200.03 282.47 200.03 300.16 196.92 300.16 196.92 333.65 209.35 333.65 209.35 300.16 206.24 300.16" style="fill: none; stroke: rgb(38, 50, 56); stroke-linecap: round; stroke-linejoin: round; transform-origin: 203.135px 308.06px 0px;" id="el2hyx6okfd4u" class="animable"></polygon><polygon points="185.46 300.16 185.46 282.47 179.24 282.47 179.24 300.16 176.14 300.16 176.14 333.65 188.56 333.65 188.56 300.16 185.46 300.16" style="fill: none; stroke: rgb(38, 50, 56); stroke-linecap: round; stroke-linejoin: round; transform-origin: 182.35px 308.06px 0px;" id="el3q6vwdh050m" class="animable"></polygon><polygon points="164.67 300.16 164.67 282.47 158.46 282.47 158.46 300.16 155.35 300.16 155.35 333.65 167.78 333.65 167.78 300.16 164.67 300.16" style="fill: none; stroke: rgb(38, 50, 56); stroke-linecap: round; stroke-linejoin: round; transform-origin: 161.565px 308.06px 0px;" id="elm8jgnr3ljd8" class="animable"></polygon><polygon points="143.89 300.16 143.89 282.47 137.67 282.47 137.67 300.16 134.57 300.16 134.57 333.65 146.99 333.65 146.99 300.16 143.89 300.16" style="fill: none; stroke: rgb(38, 50, 56); stroke-linecap: round; stroke-linejoin: round; transform-origin: 140.78px 308.06px 0px;" id="elt7n0d3rvl6" class="animable"></polygon><polygon points="123.1 300.16 123.1 282.47 116.89 282.47 116.89 300.16 113.78 300.16 113.78 333.65 126.21 333.65 126.21 300.16 123.1 300.16" style="fill: none; stroke: rgb(38, 50, 56); stroke-linecap: round; stroke-linejoin: round; transform-origin: 119.995px 308.06px 0px;" id="eln40lj9rcaua" class="animable"></polygon><line x1="107.6" y1="333.77" x2="394.9" y2="333.77" style="fill: none; stroke: rgb(38, 50, 56); stroke-linecap: round; stroke-linejoin: round; transform-origin: 251.25px 333.77px 0px;" id="el1fvjdmznxsv" class="animable"></line><line x1="107.6" y1="353.01" x2="394.9" y2="353.01" style="fill: none; stroke: rgb(38, 50, 56); stroke-linecap: round; stroke-linejoin: round; transform-origin: 251.25px 353.01px 0px;" id="eloym9dd9pdgi" class="animable"></line><line x1="138" y1="100.38" x2="138" y2="71.5" style="fill: none; stroke: rgb(38, 50, 56); stroke-linecap: round; stroke-linejoin: round; transform-origin: 138px 85.94px 0px;" id="eleocf8qfajfe" class="animable"></line><line x1="364.23" y1="100.38" x2="364.23" y2="71.5" style="fill: none; stroke: rgb(38, 50, 56); stroke-linecap: round; stroke-linejoin: round; transform-origin: 364.23px 85.94px 0px;" id="elh4fc4ak9tzp" class="animable"></line><rect x="102.27" y="99.89" width="73.91" height="49.43" style="fill: none; stroke: rgb(38, 50, 56); stroke-linecap: round; stroke-linejoin: round; transform-origin: 139.225px 124.605px 0px;" id="eld5qwopjxck5" class="animable"></rect><path d="M119.18,112.85c2.74.39,4,2.52,4,5.55V119h-2.36v-.78c0-2-.8-3.23-2.61-3.23s-2.58,1.23-2.58,3.23c0,5.07,7.58,5.1,7.58,11.46,0,3-1.29,5.19-4,5.58V137h-2.07v-1.71c-2.81-.39-4.06-2.52-4.06-5.58v-1.39h2.35v1.55c0,2,.84,3.19,2.65,3.19s2.64-1.16,2.64-3.19c0-5-7.55-5.1-7.55-11.46,0-3.1,1.26-5.13,4-5.55V111h2.07Z" style="fill: rgb(38, 50, 56); transform-origin: 118.145px 124px 0px;" id="ela2wv31qeofh" class="animable"></path><path d="M134.83,130.8v4.55h-2.45V130.8h-7.3v-2.3l7-15.75h2.74V128.5h1.81v2.3Zm-7.42-2.3h5v-11Z" style="fill: rgb(38, 50, 56); transform-origin: 130.855px 124.05px 0px;" id="elvmzlynfjcv" class="animable"></path><path d="M148.71,118.21v11.52c0,3.58-1.62,5.84-5.23,5.84-3.45,0-5.1-2.23-5.1-5.68v-.42h2.36v.58c0,2,.87,3.23,2.68,3.23s2.77-1.23,2.77-3.61V124.6a3.61,3.61,0,0,1-3.65,2.39c-2.9,0-4.19-2.07-4.19-5.33v-3.45c0-3.45,1.68-5.68,5.16-5.68S148.71,114.76,148.71,118.21Zm-7.88-.13v3.39c0,2,.88,3.26,2.68,3.26s2.68-1.23,2.68-3.26v-3.39c0-2.07-.84-3.26-2.68-3.26S140.83,116,140.83,118.08Z" style="fill: rgb(38, 50, 56); transform-origin: 143.53px 124.05px 0px;" id="ell4sqzwm96e" class="animable"></path><path d="M153.55,132.22v3.13h-2.42v-3.13Z" style="fill: rgb(38, 50, 56); transform-origin: 152.34px 133.785px 0px;" id="el48p8ukawg3t" class="animable"></path><path d="M166.26,118.21v11.52c0,3.58-1.61,5.84-5.22,5.84-3.46,0-5.1-2.23-5.1-5.68v-.42h2.35v.58c0,2,.88,3.23,2.68,3.23s2.78-1.23,2.78-3.61V124.6A3.62,3.62,0,0,1,160.1,127c-2.9,0-4.19-2.07-4.19-5.33v-3.45c0-3.45,1.67-5.68,5.16-5.68S166.26,114.76,166.26,118.21Zm-7.87-.13v3.39c0,2,.87,3.26,2.68,3.26s2.68-1.23,2.68-3.26v-3.39c0-2.07-.84-3.26-2.68-3.26S158.39,116,158.39,118.08Z" style="fill: rgb(38, 50, 56); transform-origin: 161.085px 124.055px 0px;" id="el3tcy7xju884" class="animable"></path><rect x="328.5" y="99.89" width="73.91" height="49.43" style="fill: none; stroke: rgb(38, 50, 56); stroke-linecap: round; stroke-linejoin: round; transform-origin: 365.455px 124.605px 0px;" id="el72ze5qitftc" class="animable"></rect><path d="M345.18,112.85c2.74.39,4,2.52,4,5.55V119h-2.36v-.78c0-2-.8-3.23-2.61-3.23s-2.58,1.23-2.58,3.23c0,5.07,7.58,5.1,7.58,11.46,0,3-1.29,5.19-4,5.58V137h-2.07v-1.71c-2.8-.39-4.06-2.52-4.06-5.58v-1.39h2.35v1.55c0,2,.84,3.19,2.65,3.19s2.64-1.16,2.64-3.19c0-5-7.55-5.1-7.55-11.46,0-3.1,1.26-5.13,4-5.55V111h2.07Z" style="fill: rgb(38, 50, 56); transform-origin: 344.145px 124px 0px;" id="elaa9j9n8qar" class="animable"></path><path d="M361.83,118.24c0,6.81-7.65,9.26-7.68,14.46v.35h7.42v2.3h-9.91v-1.94c0-7.29,7.65-8.71,7.65-15.07,0-2.33-.77-3.55-2.64-3.55s-2.65,1.32-2.65,3.32v2h-2.36v-1.84c0-3.45,1.59-5.74,5.07-5.74S361.83,114.79,361.83,118.24Z" style="fill: rgb(38, 50, 56); transform-origin: 356.745px 123.94px 0px;" id="elax09nn29ns9" class="animable"></path><path d="M368.77,116.85a6.68,6.68,0,0,1-3.13,1v-2.06c2.45-.1,3.29-1.42,3.87-3h1.74v22.6h-2.48Z" style="fill: rgb(38, 50, 56); transform-origin: 368.445px 124.09px 0px;" id="el7t96kyjmuq3" class="animable"></path><path d="M377.48,132.22v3.13h-2.42v-3.13Z" style="fill: rgb(38, 50, 56); transform-origin: 376.27px 133.785px 0px;" id="elsygttlp1gtq" class="animable"></path><path d="M390.2,118.21v11.52c0,3.58-1.61,5.84-5.23,5.84-3.45,0-5.1-2.23-5.1-5.68v-.42h2.36v.58c0,2,.87,3.23,2.68,3.23s2.77-1.23,2.77-3.61V124.6A3.61,3.61,0,0,1,384,127c-2.91,0-4.2-2.07-4.2-5.33v-3.45c0-3.45,1.68-5.68,5.16-5.68S390.2,114.76,390.2,118.21Zm-7.88-.13v3.39c0,2,.88,3.26,2.68,3.26s2.68-1.23,2.68-3.26v-3.39c0-2.07-.84-3.26-2.68-3.26S382.32,116,382.32,118.08Z" style="fill: rgb(38, 50, 56); transform-origin: 385px 124.055px 0px;" id="elekebjf626ze" class="animable"></path></g><g id="freepik--Shadow--inject-71" style="transform-origin: 243.24px 409.07px 0px;" class="animable animator-hidden"><ellipse cx="243.24" cy="409.07" rx="83.48" ry="18.36" style="fill: rgb(146, 227, 169); transform-origin: 243.24px 409.07px 0px;" id="elfqzwe7jxjwn" class="animable"></ellipse><g id="elu1pz095fteq"><ellipse cx="243.24" cy="409.07" rx="83.48" ry="18.36" style="fill: rgb(255, 255, 255); opacity: 0.5; transform-origin: 243.24px 409.07px 0px;" class="animable"></ellipse></g></g><g id="freepik--character-1--inject-71" style="transform-origin: 194.228px 268.857px 0px;" class="animable"><path d="M175.92,397s-.38,4.94,1,6.4,13.28,2,14.63.18.58-8.59.58-8.59S187.28,396.59,175.92,397Z" style="fill: rgb(146, 227, 169); stroke: rgb(38, 50, 56); stroke-linecap: round; stroke-linejoin: round; transform-origin: 184.11px 399.862px 0px;" id="elea3zvhenjoi" class="animable"></path><path d="M188.05,402.63c-6.49.17-10-.25-11.84-.75a3.34,3.34,0,0,0,.68,1.48c1.34,1.46,13.28,2,14.63.18a3.16,3.16,0,0,0,.45-1.06C190.77,402.54,189.48,402.59,188.05,402.63Z" style="fill: rgb(255, 255, 255); stroke: rgb(38, 50, 56); stroke-linecap: round; stroke-linejoin: round; transform-origin: 184.09px 403.287px 0px;" id="el6qhxs7u3gf" class="animable"></path><path d="M211.35,403.16A30.07,30.07,0,0,0,221.58,409c5.58,1.65,7.12,2.56,6.54,4.39s-5.39,2.38-16.94,2.75-20.24-1.13-21.78-2.23-.58-3.11,0-3.65S209.23,401.7,211.35,403.16Z" style="fill: rgb(146, 227, 169); stroke: rgb(38, 50, 56); stroke-linecap: round; stroke-linejoin: round; transform-origin: 208.401px 409.59px 0px;" id="elqgwv0e41qk" class="animable"></path><path d="M228.12,413.43a1.62,1.62,0,0,0-.26-1.66c-2.69,1.1-7.5,1.43-18.6,1.3-9.76-.12-15.72-1.55-20.6-1.36a2,2,0,0,0,.74,2.24c1.54,1.1,10.23,2.59,21.78,2.23S227.55,415.26,228.12,413.43Z" style="fill: rgb(255, 255, 255); stroke: rgb(38, 50, 56); stroke-linecap: round; stroke-linejoin: round; transform-origin: 208.403px 413.964px 0px;" id="el09v012o0hc6i" class="animable"></path><path d="M187.67,296.36s-.39,21.95-4.62,40.79-6.93,27.62-7.7,39.51a144.36,144.36,0,0,0,.19,21.4s2.12,1.09,7.32.73a17.23,17.23,0,0,0,8.08-2.38s.58-20.49.58-31.83,5-42.43,5.39-53.95-3.08-17.38-5.58-19.21S187.67,296.36,187.67,296.36Z" style="fill: rgb(38, 50, 56); stroke: rgb(38, 50, 56); stroke-linecap: round; stroke-linejoin: round; transform-origin: 185.991px 344.985px 0px;" id="elpmuir4pyvfl" class="animable"></path><path d="M213.08,270.75s-.19,11-.19,24.88-3.08,46.46-5.58,62-.77,36.75-.39,38.4,1.16,1.1,2.5,2.74a34.43,34.43,0,0,1,2.89,4.57s-7.51,5.13-13.28,7-7.9,2.56-9.24,2.56-1.35-1.28-2.31-4.39-1-16.1-1-16.1-2.69-18.46-2.69-29.8,5.2-18.29,5.2-29.26-3.28-40.61-5.2-45-5.59-10.42-6-13.53-.58-5.13-.58-5.13Z" style="fill: rgb(38, 50, 56); stroke: rgb(38, 50, 56); stroke-linecap: round; stroke-linejoin: round; transform-origin: 195.145px 341.295px 0px;" id="eltel80gql1d" class="animable"></path><path d="M208.08,219.35s7.31-6.95,8.66-9.32.39-6.95,1.93-8.23,6.73-3.3,7.5-4.94,1.74-2.2,2.31.55-1.34,4-2.5,5.3L224.83,204l7.7-1.83s-1.35-5.67.38-6.95,2.89,6.95,3.08,9.33-2.11,4.21-6.35,5.85a68.58,68.58,0,0,1-8.09,2.56l-8.66,20.85Z" style="fill: rgb(255, 255, 255); stroke: rgb(38, 50, 56); stroke-linecap: round; stroke-linejoin: round; transform-origin: 222.04px 214.448px 0px;" id="el3b11wa311l2" class="animable"></path><path d="M234.07,203.62c.38-1.82-.19-7.86,1.35-8.77s1.73,3.47,1.73,3.47.77,4.39-.19,6.22-2.31,2.19-2.31.91" style="fill: rgb(255, 255, 255); stroke: rgb(38, 50, 56); stroke-linecap: round; stroke-linejoin: round; transform-origin: 235.756px 200.468px 0px;" id="el4e6vuumoagd" class="animable"></path><path d="M222.77,210.31s-.45-1.93,2.63-2.84,8.28-2,8.28-2,3.85-10.6,5.2-7.31-1.73,10.06-2.89,11-9.82,2.56-9.82,2.56" style="fill: rgb(255, 255, 255); stroke: rgb(38, 50, 56); stroke-linecap: round; stroke-linejoin: round; transform-origin: 230.981px 204.623px 0px;" id="elqraoc9l1rb" class="animable"></path><path d="M188.82,174.18S181.12,187,178.43,198s-5.2,32.75-6,45.18-2.5,29.63-2.5,29.63a86.4,86.4,0,0,0,23.48,2.75,139.71,139.71,0,0,0,25.8-2.93S215,236.73,211,215.88s-7.89-34-7.89-34S192.67,173.44,188.82,174.18Z" style="fill: rgb(146, 227, 169); stroke: rgb(38, 50, 56); stroke-linecap: round; stroke-linejoin: round; transform-origin: 194.57px 224.856px 0px;" id="elqext13vwgo8" class="animable"></path><path d="M193.83,150.22a22.07,22.07,0,0,1,.19,10.6c-1.35,5.67-2.12,9.7-2.12,9.7s11.17,11.89,11.17,11.34.39-6.77,2.12-10.61,2.89-6,2.89-6a14.87,14.87,0,0,1-6-6.76c-2.12-4.76-2.31-12.26-5.2-12.44S193.83,150.22,193.83,150.22Z" style="fill: rgb(255, 255, 255); stroke: rgb(38, 50, 56); stroke-linecap: round; stroke-linejoin: round; transform-origin: 199.99px 163.962px 0px;" id="elt4i99ihuf1i" class="animable"></path><path d="M220.4,133.94s0,10.79.77,13.17,3.46,2.92,3.08,4.2-4,2-4,2-1,9.15-1.74,11.71-2.69,3.11-6.93,2.74-9-1.64-11-4.39-3.08-7.68-3.08-7.68a120.27,120.27,0,0,1-1-13.17c0-5.85-.77-9,7.32-12.07S220,131.38,220.4,133.94Z" style="fill: rgb(255, 255, 255); stroke: rgb(38, 50, 56); stroke-linecap: round; stroke-linejoin: round; transform-origin: 210.383px 148.602px 0px;" id="eli17n9lvn5l" class="animable"></path><path d="M211.54,155.52l3.85,2.38s-1.92,3.47-3.27,2.56S211.54,155.52,211.54,155.52Z" style="fill: none; stroke: rgb(38, 50, 56); stroke-linecap: round; stroke-linejoin: round; transform-origin: 213.356px 158.066px 0px;" id="elj4lp1j2tur7" class="animable"></path><path d="M217.32,147.75c0,1.06-.3,1.92-.68,1.92s-.67-.86-.67-1.92.3-1.92.67-1.92S217.32,146.69,217.32,147.75Z" style="fill: rgb(38, 50, 56); transform-origin: 216.645px 147.75px 0px;" id="eli8h59bi9yee" class="animable"></path><path d="M213.27,143.81s1-3.47,3.86-3.29" style="fill: none; stroke: rgb(38, 50, 56); stroke-linecap: round; stroke-linejoin: round; transform-origin: 215.2px 142.162px 0px;" id="eli4sb8yu40dn" class="animable"></path><path d="M199.61,152l4-1.09s-2.31-3.48.19-5.12,6.16-2.93,5.2-4.58-7.32-2.56-4.24-4.57,7.32-3.11,8.09-2.38,0,1.65,5,1.65,7.7-1.83,6.16-7.68-9.82-8.05-15-6-6.74,3.48-6.74,3.48-11,.36-14.25,8-1.92,12.44.39,15,5.77,5.31,7.12,5.31S199.61,152,199.61,152Z" style="fill: rgb(38, 50, 56); stroke: rgb(38, 50, 56); stroke-linecap: round; stroke-linejoin: round; transform-origin: 205.262px 137.75px 0px;" id="elni88qtymytg" class="animable"></path><path d="M189.62,144.5c3.8-1.26,5.92-5.07,11-8.45a18.35,18.35,0,0,1,10.56-3s-2.12-6.34,3-5.92,6.76,3.8,2.12,3.38" style="fill: none; stroke: rgb(255, 255, 255); stroke-linecap: round; stroke-linejoin: round; stroke-width: 0.75px; transform-origin: 204.327px 135.805px 0px;" id="eleqt2ux2x535" class="animable"></path><path d="M201.34,154.24c0-.55-1.54-8.23-4.43-8.23s-4.43,2-3.27,6.58,4.62,6,7.31,3.66" style="fill: rgb(255, 255, 255); stroke: rgb(38, 50, 56); stroke-linecap: round; stroke-linejoin: round; transform-origin: 197.296px 151.686px 0px;" id="eltfom1tn59m" class="animable"></path><polygon points="189.59 166.13 204.8 179.66 206.34 188.26 185.74 174.54 189.59 166.13" style="fill: rgb(146, 227, 169); stroke: rgb(38, 50, 56); stroke-linecap: round; stroke-linejoin: round; transform-origin: 196.04px 177.195px 0px;" id="elynfw79p0on" class="animable"></polygon><path d="M169.84,313.54a2.23,2.23,0,0,1-2.27-2l-1.48-17.93a5.41,5.41,0,0,1,5.1-5.7l30.45-2.41a5.55,5.55,0,0,1,6,4.78l1.81,18.14a2.2,2.2,0,0,1-2.06,2.37,2.27,2.27,0,0,1-2.49-2l-1.81-18.14a1,1,0,0,0-1.09-.86l-30.45,2.41a1,1,0,0,0-.92,1l1.47,17.93a2.21,2.21,0,0,1-2.1,2.34Z" style="fill: rgb(38, 50, 56); stroke: rgb(255, 255, 255); stroke-miterlimit: 10; transform-origin: 187.769px 299.509px 0px;" id="elt2gcei7fi1m" class="animable"></path><path d="M153.48,311.71l4.1,29.53a4,4,0,0,0,4.3,3.48l58.55-4.64a4,4,0,0,0,3.71-4V305.52l-35,7.16Z" style="fill: rgb(146, 227, 169); stroke: rgb(38, 50, 56); stroke-linecap: round; stroke-linejoin: round; transform-origin: 188.81px 325.127px 0px;" id="el6z475c9ssgp" class="animable"></path><path d="M165.77,341.18l-.8.06a.84.84,0,0,1-.91-.74l-1.8-21.91a.81.81,0,0,1,.78-.87l.8-.06a.83.83,0,0,1,.91.74l1.8,21.91A.81.81,0,0,1,165.77,341.18Z" style="fill: rgb(255, 255, 255); stroke: rgb(38, 50, 56); stroke-linecap: round; stroke-linejoin: round; transform-origin: 164.405px 329.45px 0px;" id="elwhdatfobb6" class="animable"></path><path d="M172.87,340.66l-.79.06a.85.85,0,0,1-.92-.75l-1.8-21.91a.82.82,0,0,1,.78-.87l.8-.06a.83.83,0,0,1,.91.75l1.81,21.91A.84.84,0,0,1,172.87,340.66Z" style="fill: rgb(255, 255, 255); stroke: rgb(38, 50, 56); stroke-linecap: round; stroke-linejoin: round; transform-origin: 171.51px 328.925px 0px;" id="elds5yxpqeg8r" class="animable"></path><path d="M180,340.13l-.79.06a.85.85,0,0,1-.92-.75l-1.8-21.91a.82.82,0,0,1,.78-.87l.8-.05a.84.84,0,0,1,.92.74l1.8,21.91A.84.84,0,0,1,180,340.13Z" style="fill: rgb(255, 255, 255); stroke: rgb(38, 50, 56); stroke-linecap: round; stroke-linejoin: round; transform-origin: 178.64px 328.4px 0px;" id="elwn9dk6xib8k" class="animable"></path><path d="M187.08,339.6l-.8.06a.84.84,0,0,1-.92-.74L183.56,317a.83.83,0,0,1,.79-.87l.79-.06a.84.84,0,0,1,.92.74l1.8,21.91A.81.81,0,0,1,187.08,339.6Z" style="fill: rgb(255, 255, 255); stroke: rgb(38, 50, 56); stroke-linecap: round; stroke-linejoin: round; transform-origin: 185.711px 327.865px 0px;" id="elwhlr1v6oddb" class="animable"></path><path d="M194.18,339.07l-.8.06a.82.82,0,0,1-.91-.74l-1.81-21.91a.83.83,0,0,1,.79-.87l.79-.06a.85.85,0,0,1,.92.74L195,338.2A.81.81,0,0,1,194.18,339.07Z" style="fill: rgb(255, 255, 255); stroke: rgb(38, 50, 56); stroke-linecap: round; stroke-linejoin: round; transform-origin: 192.831px 327.341px 0px;" id="elr2l5whws3zq" class="animable"></path><path d="M201.28,338.55l-.8.06a.83.83,0,0,1-.91-.75L197.77,316a.82.82,0,0,1,.78-.87l.79-.06a.85.85,0,0,1,.92.75l1.8,21.91A.82.82,0,0,1,201.28,338.55Z" style="fill: rgb(255, 255, 255); stroke: rgb(38, 50, 56); stroke-linecap: round; stroke-linejoin: round; transform-origin: 199.914px 326.84px 0px;" id="elswyj874j1up" class="animable"></path><path d="M208.38,338l-.79.06a.85.85,0,0,1-.92-.75l-1.8-21.9a.81.81,0,0,1,.78-.87l.8-.06a.82.82,0,0,1,.91.74l1.8,21.91A.81.81,0,0,1,208.38,338Z" style="fill: rgb(255, 255, 255); stroke: rgb(38, 50, 56); stroke-linecap: round; stroke-linejoin: round; transform-origin: 207.015px 326.269px 0px;" id="elpag49iae89h" class="animable"></path><path d="M215.48,337.49l-.79.06a.84.84,0,0,1-.92-.74L212,314.9a.81.81,0,0,1,.78-.87l.8-.06a.83.83,0,0,1,.91.74l1.81,21.91A.83.83,0,0,1,215.48,337.49Z" style="fill: rgb(255, 255, 255); stroke: rgb(38, 50, 56); stroke-linecap: round; stroke-linejoin: round; transform-origin: 214.149px 325.76px 0px;" id="el1jgmpzgqe7f" class="animable"></path><polygon points="149.24 307.53 188.52 309.91 228.18 300.4 229.14 306.25 188.71 315.03 150.21 312.83 149.24 307.53" style="fill: rgb(146, 227, 169); stroke: rgb(38, 50, 56); stroke-linecap: round; stroke-linejoin: round; transform-origin: 189.19px 307.715px 0px;" id="elj31529nyz4" class="animable"></polygon><path d="M179.58,227s-2.31,5.85-1.54,17.74,7.51,32.37,7.51,33.47-4.62,5.67-4.43,7.68a14.22,14.22,0,0,0,1.93,4.76s-2.12.73-1.93,1.65.77,1.28,2.31,1.28,4,1.28,5.59-.37,2.31-2.56,2.69-5.12-.38-6.59-.38-13.17-2.89-36.58-1.93-39.69a42.63,42.63,0,0,1,2.12-5.49Z" style="fill: rgb(255, 255, 255); stroke: rgb(38, 50, 56); stroke-linecap: round; stroke-linejoin: round; transform-origin: 184.85px 260.527px 0px;" id="elq8dupzgo4ml" class="animable"></path><path d="M189.21,188.44a20.69,20.69,0,0,0-7.32,5.12c-2.69,3.3-1.73,7.32-1.54,9.88a42.09,42.09,0,0,1-.19,6.22l-4.24,16.65s1.35,2.19,10.4,4,11.94,1.83,11.94,1.83-.77-19,0-26.71,1.73-11.34-1-14.08" style="fill: rgb(146, 227, 169); stroke: rgb(38, 50, 56); stroke-linecap: round; stroke-linejoin: round; transform-origin: 187.496px 210.29px 0px;" id="el43ti5q5q555" class="animable"></path></g><g id="freepik--character-2--inject-71" style="transform-origin: 288.926px 275.085px 0px;" class="animable animator-hidden"><path d="M275.2,393.46s-10.76,5.75-13,8,3.34,4.45,7.42,4.45,5.93.56,12.24-1.85,5.38-3.9,10.94-2.42,7.8-.55,7.8-.55l-7.05-8Z" style="fill: rgb(146, 227, 169); stroke: rgb(38, 50, 56); stroke-linecap: round; stroke-linejoin: round; transform-origin: 281.144px 399.528px 0px;" id="elp5z5n0ueztl" class="animable"></path><path d="M297.08,397.07a34.33,34.33,0,0,0-9.82,2.14c-4.82,1.86-7.79,3.71-15,4.27a19.36,19.36,0,0,1-10.18-1.83c-1.69,2.15,3.63,4.24,7.59,4.24s5.93.56,12.24-1.85,5.38-3.9,10.94-2.42,7.8-.55,7.8-.55Z" style="fill: rgb(255, 255, 255); stroke: rgb(38, 50, 56); stroke-linecap: round; stroke-linejoin: round; transform-origin: 281.204px 401.508px 0px;" id="el8u8ey75uj6g" class="animable"></path><path d="M297.3,398.66s-13.67,9.71-15.91,12.28,1.22,5.15,7.55,5.15,20.61-5.35,22.24-8.71S297.3,398.66,297.3,398.66Z" style="fill: rgb(146, 227, 169); stroke: rgb(38, 50, 56); stroke-linecap: round; stroke-linejoin: round; transform-origin: 296.003px 407.375px 0px;" id="elb7784t50t78" class="animable"></path><path d="M288.94,416.09c6.32,0,20.61-5.35,22.24-8.71.32-.67,0-1.41-.79-2.17a56,56,0,0,1-17,7.32c-6.36,1.54-10.38,1.06-12.69.33C281.09,414.66,284.21,416.09,288.94,416.09Z" style="fill: rgb(255, 255, 255); stroke: rgb(38, 50, 56); stroke-linecap: round; stroke-linejoin: round; transform-origin: 296.001px 410.65px 0px;" id="elo5icjxa79b" class="animable"></path><path d="M271.49,241.17s-10.76,26-8,44.33,8.16,41.74,8.9,46-.19,13,1.11,21.14,2.6,28.94,2,33.21-1.67,9.27-1.67,9.27,6.87,3,9.46,3.71a64,64,0,0,0,9.09,1.12s-1.85-1.12,2.42,1.85a40.84,40.84,0,0,0,12.61,5.57c2.6.55,3.9,2,4.08.55s.19-6.12.19-8a241.68,241.68,0,0,0,.55-28.57c-.74-15-5.93-24.67-4.82-40.07s8.35-32.83,6.86-53.42S307.11,243,307.11,243,278.36,242.46,271.49,241.17Z" style="fill: rgb(38, 50, 56); stroke: rgb(38, 50, 56); stroke-linecap: round; stroke-linejoin: round; transform-origin: 288.754px 324.858px 0px;" id="el61j0bj2v00h" class="animable"></path><path d="M282.44,269.73l5.56,5.75s-1.11,22.45-1.11,37.47-.19,25.6,1.3,34.51,5.56,37.65,5.93,43.41.56,5.38-.55,6.86a4.43,4.43,0,0,0-1.12,2.23" style="fill: none; stroke: rgb(255, 255, 255); stroke-linecap: round; stroke-linejoin: round; transform-origin: 288.424px 334.845px 0px;" id="ele1faavp0f1p" class="animable"></path><path d="M330.48,188.85c-.93.93-5-.37-4.26-3.52s5.93-11.87,1.11-22.26-16.14-10.57-16.14-10.57l-1.06,2.73c0-1.87-.08-3.32-.08-3.32-1-2.51-12.54-6.77-13-3.26s-2.25,14.29,2,17.3c2.88,2,5.76,1,7.79-.79a53.76,53.76,0,0,0-1.19,15.72c.93,12.43,10.21,13.72,17.07,13S331.41,187.93,330.48,188.85Z" style="fill: rgb(38, 50, 56); stroke: rgb(38, 50, 56); stroke-linecap: round; stroke-linejoin: round; transform-origin: 313.494px 170.679px 0px;" id="el45u6snfz6ss" class="animable"></path><path d="M311.89,155.31s12.05,6,12.8,15.06-5.27,14.56-2.76,18.08,5.27,2.25,5.27,2.25" style="fill: none; stroke: rgb(255, 255, 255); stroke-linecap: round; stroke-linejoin: round; stroke-width: 0.75px; transform-origin: 319.545px 173.117px 0px;" id="ele2mxql3j8yg" class="animable"></path><path d="M309.63,157.32s5.53,9.79,2.51,18.58-.75,15.56,6.78,17.31" style="fill: none; stroke: rgb(255, 255, 255); stroke-linecap: round; stroke-linejoin: round; stroke-width: 0.75px; transform-origin: 314.275px 175.265px 0px;" id="el4of179pq9oh" class="animable"></path><path d="M287.45,184.4a53.22,53.22,0,0,1-10.76,3.9c-6.13,1.48-7.24,2.41-7.79,3.71s-8.54,14.28-14.1,22.26-8.54,13.35-7.42,16.88,3.89,4.82,6.68,2.41,14.46-21.33,14.46-21.33,2.23,14.28,2.23,20.77-.37,10.39-.37,10.39,5.94,1.67,19.48,1.67,17.25-2,17.25-2-3-7.42-1.86-13.91a56.56,56.56,0,0,1,3-11s7.24,17.44,9.09,18.92,11.69,4.83,11.69-3-9.65-29.31-12.06-36.55-2.6-6.3-6.68-7.79-16.69-4.08-16.69-4.08Z" style="fill: rgb(146, 227, 169); stroke: rgb(38, 50, 56); stroke-linecap: round; stroke-linejoin: round; transform-origin: 288.088px 214.73px 0px;" id="elltyap3dzxih" class="animable"></path><path d="M247.38,231.15c1.11,3.52,3.89,4.82,6.68,2.41,2-1.72,8.53-11.89,12.1-17.55A9.32,9.32,0,0,0,265,214.5a10.7,10.7,0,0,0-8.43-2.78c-.6.89-1.18,1.75-1.74,2.55C249.23,222.24,246.26,227.62,247.38,231.15Z" style="fill: rgb(255, 255, 255); stroke: rgb(38, 50, 56); stroke-linecap: round; stroke-linejoin: round; transform-origin: 256.653px 223.224px 0px;" id="elknfzhj2tk1" class="animable"></path><path d="M329,234.12c0-2.3-.84-5.79-2.09-9.76a24.57,24.57,0,0,0-14.72,3c2,4.46,4.21,9,5.12,9.74C319.17,238.57,329,241.91,329,234.12Z" style="fill: rgb(255, 255, 255); stroke: rgb(38, 50, 56); stroke-linecap: round; stroke-linejoin: round; transform-origin: 320.595px 231.648px 0px;" id="el76to05pdgdc" class="animable"></path><line x1="258" y1="217.96" x2="252.47" y2="220.75" style="fill: rgb(255, 255, 255); stroke: rgb(38, 50, 56); stroke-linecap: round; stroke-linejoin: round; transform-origin: 255.235px 219.355px 0px;" id="el8aqdoqxdnj2" class="animable"></line><path d="M288.56,181.06s-4.64.19-6.68,4.08-4.45,18.55-4.45,18.55,8.9-2,9.64-1.85S298,207.4,298,207.4s4.82-14.65,3.15-21.88S292.08,180.14,288.56,181.06Z" style="fill: rgb(255, 255, 255); stroke: rgb(38, 50, 56); stroke-linecap: round; stroke-linejoin: round; transform-origin: 289.466px 193.775px 0px;" id="el4syaukwdmf6" class="animable"></path><path d="M287.45,176.8s.37,2.59-1.67,10.76-1.12,15.76,2.22,13.35,8.16-12.43,8.53-16.32S298,173.83,298,173.83,295.24,176.8,287.45,176.8Z" style="fill: rgb(255, 255, 255); stroke: rgb(38, 50, 56); stroke-linecap: round; stroke-linejoin: round; transform-origin: 291.351px 187.597px 0px;" id="elzxankxqu46a" class="animable"></path><path d="M279.65,151.94s-1.48,12.06-.18,19.11,6.12,9.83,13.73,7.6,11.5-10.2,11.5-10.2,5.38.56,6.68-2.78-.19-6.68-2.79-6.5-5.38,6.13-7.23,5.2-1.64-7.8-.9-10.21-3.28-4.51-10-5.81-9.61-1-10.16-.62S279.65,151.94,279.65,151.94Z" style="fill: rgb(255, 255, 255); stroke: rgb(38, 50, 56); stroke-linecap: round; stroke-linejoin: round; transform-origin: 295.397px 163.403px 0px;" id="elo3k863ixq2" class="animable"></path><path d="M287.44,157.77s-.37,3.53-1.29,4.27-2.6,1.3-1.49,2a7.43,7.43,0,0,0,2.6.93" style="fill: none; stroke: rgb(38, 50, 56); stroke-linecap: round; stroke-linejoin: round; transform-origin: 285.867px 161.37px 0px;" id="elyp7bixvam9r" class="animable"></path><path d="M283.55,167.61a7,7,0,0,0,5.56.55,7.9,7.9,0,0,0,4.08-3.15" style="fill: none; stroke: rgb(38, 50, 56); stroke-linecap: round; stroke-linejoin: round; transform-origin: 288.37px 166.754px 0px;" id="elg0uvse7b6kk" class="animable"></path><path d="M292.45,158.7a1.05,1.05,0,1,1-1-1.3A1.18,1.18,0,0,1,292.45,158.7Z" style="fill: rgb(38, 50, 56); transform-origin: 291.419px 158.45px 0px;" id="el534wd0olldf" class="animable"></path><path d="M284.57,157a1.05,1.05,0,1,1-1-1.3A1.19,1.19,0,0,1,284.57,157Z" style="fill: rgb(38, 50, 56); transform-origin: 283.538px 156.75px 0px;" id="el3mfjjq914ys" class="animable"></path><path d="M281.28,152.86s.93-4,4.33-1.54" style="fill: none; stroke: rgb(38, 50, 56); stroke-linecap: round; stroke-linejoin: round; transform-origin: 283.445px 151.69px 0px;" id="elsmleb0s1ya" class="animable"></path><path d="M290.66,152.86a2.46,2.46,0,0,1,3.07,2.85" style="fill: none; stroke: rgb(38, 50, 56); stroke-linecap: round; stroke-linejoin: round; transform-origin: 292.219px 154.24px 0px;" id="elas35w4dlzsb" class="animable"></path><path d="M280.21,148.42s1.11-7.8,3.34-10.95,10.2-5,19.11-1.48,11.13,8.53,10.38,13.17a57.94,57.94,0,0,1-3.33,10.76s-5.57-6.68-10.95-8.91S280.21,148.42,280.21,148.42Z" style="fill: rgb(146, 227, 169); stroke: rgb(38, 50, 56); stroke-linecap: round; stroke-linejoin: round; transform-origin: 296.693px 147px 0px;" id="els5y6uqx2hx" class="animable"></path><path d="M306.68,156.65s-2.69-5.39-11.2-9.13a32.48,32.48,0,0,0-20.54-1.86c-3.94,1-8.3,3.32-4.77,5.39s4.15-1,12.24.42,24.9,6.63,24.9,6.63Z" style="fill: rgb(146, 227, 169); stroke: rgb(38, 50, 56); stroke-linecap: round; stroke-linejoin: round; transform-origin: 288.09px 151.442px 0px;" id="eler5t9hgxmcj" class="animable"></path><path d="M280.54,151.05s-11-2.7-11.41-1.24S274.11,153.13,280.54,151.05Z" style="fill: rgb(255, 255, 255); stroke: rgb(38, 50, 56); stroke-linecap: round; stroke-linejoin: round; transform-origin: 274.824px 150.678px 0px;" id="elvdbzfag85tl" class="animable"></path><polygon points="293.57 224.66 289.49 212.04 259.25 209.63 270.75 246.36 300.43 251.74 293.57 224.66" style="fill: rgb(255, 255, 255); stroke: rgb(38, 50, 56); stroke-linecap: round; stroke-linejoin: round; transform-origin: 279.84px 230.685px 0px;" id="el7qw8ojaoecy" class="animable"></polygon><path d="M260.32,225.62s1.15,3.32,2.88,4.33,2.17-.29,1.16-1.73a13.79,13.79,0,0,1-1.59-2.6A1.45,1.45,0,0,0,260.32,225.62Z" style="fill: rgb(255, 255, 255); stroke: rgb(38, 50, 56); stroke-linecap: round; stroke-linejoin: round; transform-origin: 262.607px 227.627px 0px;" id="eljjf35ohp3r9" class="animable"></path><path d="M259.74,223.16s-.15,2.31.86,3.18,5.35,1.88,5.49.72.29-1.15-2.45-2A11.63,11.63,0,0,1,259.74,223.16Z" style="fill: rgb(255, 255, 255); stroke: rgb(38, 50, 56); stroke-linecap: round; stroke-linejoin: round; transform-origin: 262.943px 225.371px 0px;" id="elw5a3zbfnvz" class="animable"></path><path d="M259.59,218.25s-2,3.76-1.3,4.77,7.23,2.45,7.8,1.73-1-2.89-2.45-3.76S259.59,218.25,259.59,218.25Z" style="fill: rgb(255, 255, 255); stroke: rgb(38, 50, 56); stroke-linecap: round; stroke-linejoin: round; transform-origin: 262.176px 221.597px 0px;" id="ellaeyt01z8x" class="animable"></path><path d="M261.18,215.94s-3.18.29-3.18,2,5.64,5.35,6.5,4.48.44-1.45-.86-3A37.23,37.23,0,0,1,261.18,215.94Z" style="fill: rgb(255, 255, 255); stroke: rgb(38, 50, 56); stroke-linecap: round; stroke-linejoin: round; transform-origin: 261.475px 219.246px 0px;" id="elfp35yaeeey" class="animable"></path><polygon points="280.77 211.86 277.2 211.3 276.79 207.09 271.23 206.13 272.71 210.6 268.89 210 271.12 215.94 281.88 217.42 280.77 211.86" style="fill: rgb(255, 255, 255); stroke: rgb(38, 50, 56); stroke-linecap: round; stroke-linejoin: round; transform-origin: 275.385px 211.775px 0px;" id="elvv97y3euec" class="animable"></polygon><path d="M296.91,222.59a41.22,41.22,0,0,0-8.32-1.09c-1.77,0-9.14,2.57-7.87,3.08s6.35,0,7.11,0a10.35,10.35,0,0,1,2.29.52s-4.57.51-5.59.77-5.08,1.54-4.06,2.31,5.08.26,5.08.26l4.31.26a52.32,52.32,0,0,1-5.84,1c-1.27,0-.51,1.54,1,1.54s6.09.52,6.09.52-4.57,1-4.82,2.05,3.81.52,5.08,0,5.84-3.08,6.85-3.34,3.56-1,3.56-1,9.39,4.11,12.18,6.16,5.08,4.37,9.65,4.37,5.34-3.85,5.34-6.94-4.83-5.14-8.89-5.65-13.2-3.34-16-3.6A66.24,66.24,0,0,1,296.91,222.59Z" style="fill: rgb(255, 255, 255); stroke: rgb(38, 50, 56); stroke-linecap: round; stroke-linejoin: round; transform-origin: 304.628px 230.75px 0px;" id="elopz699x5w3d" class="animable"></path></g><defs>     <filter id="active" height="200%">         <feMorphology in="SourceAlpha" result="DILATED" operator="dilate" radius="2"></feMorphology>                <feFlood flood-color="#32DFEC" flood-opacity="1" result="PINK"></feFlood>        <feComposite in="PINK" in2="DILATED" operator="in" result="OUTLINE"></feComposite>        <feMerge>            <feMergeNode in="OUTLINE"></feMergeNode>            <feMergeNode in="SourceGraphic"></feMergeNode>        </feMerge>    </filter>    <filter id="hover" height="200%">        <feMorphology in="SourceAlpha" result="DILATED" operator="dilate" radius="2"></feMorphology>                <feFlood flood-color="#ff0000" flood-opacity="0.5" result="PINK"></feFlood>        <feComposite in="PINK" in2="DILATED" operator="in" result="OUTLINE"></feComposite>        <feMerge>            <feMergeNode in="OUTLINE"></feMergeNode>            <feMergeNode in="SourceGraphic"></feMergeNode>        </feMerge>            <feColorMatrix type="matrix" values="0   0   0   0   0                0   1   0   0   0                0   0   0   0   0                0   0   0   1   0 "></feColorMatrix>    </filter></defs></svg>